<svg width="30" height="30" viewBox="0 0 30 30" fill="none" xmlns="http://www.w3.org/2000/svg">
<path d="M26.4412 24.8756C24.5053 21.5288 21.4022 19.2436 17.8069 18.4198C19.5153 17.7198 20.9277 16.4484 21.8027 14.8227C22.6777 13.1969 22.9611 11.3178 22.6044 9.50635C22.2477 7.69488 21.2731 6.06347 19.847 4.89085C18.421 3.71822 16.632 3.07715 14.7858 3.07715C12.9395 3.07715 11.1506 3.71822 9.72451 4.89085C8.29847 6.06347 7.32385 7.69488 6.96716 9.50635C6.61046 11.3178 6.89383 13.1969 7.76886 14.8227C8.64388 16.4484 10.0563 17.7198 11.7647 18.4198C8.17405 19.2401 5.06624 21.5288 3.1303 24.8756C3.07426 24.9828 3.06178 25.1074 3.09547 25.2235C3.12915 25.3396 3.2064 25.4382 3.31107 25.4987C3.41574 25.5592 3.53975 25.577 3.65718 25.5482C3.77461 25.5194 3.87638 25.4464 3.94124 25.3444C6.23108 21.3823 10.2881 19.0163 14.7858 19.0163C19.2834 19.0163 23.3405 21.3823 25.6303 25.3444C25.6714 25.4156 25.7305 25.4747 25.8017 25.5158C25.8728 25.557 25.9536 25.5787 26.0358 25.5788C26.1182 25.579 26.1991 25.5571 26.2701 25.5155C26.3776 25.4532 26.456 25.3509 26.488 25.2309C26.5201 25.111 26.5033 24.9832 26.4412 24.8756ZM7.75452 11.0475C7.75452 9.65685 8.1669 8.29743 8.9395 7.14115C9.7121 5.98487 10.8102 5.08365 12.095 4.55148C13.3798 4.0193 14.7936 3.88005 16.1575 4.15136C17.5214 4.42266 18.7743 5.09232 19.7576 6.07566C20.741 7.059 21.4106 8.31185 21.6819 9.67577C21.9532 11.0397 21.814 12.4535 21.2818 13.7382C20.7496 15.023 19.8484 16.1212 18.6921 16.8938C17.5358 17.6664 16.1764 18.0788 14.7858 18.0788C12.9216 18.0766 11.1345 17.3351 9.81633 16.0169C8.49818 14.6988 7.75669 12.9116 7.75452 11.0475Z" fill="#5F5B5B"/>
</svg>
