<svg width="47" height="43" viewBox="0 0 47 43" fill="none" xmlns="http://www.w3.org/2000/svg">
<path d="M44.7309 15.3446L30.8736 13.3971L24.679 1.25294C24.5098 0.92044 24.2314 0.651273 23.8876 0.487662C23.0253 0.0759964 21.9774 0.419052 21.5462 1.25294L15.3516 13.3971L1.49426 15.3446C1.11221 15.3974 0.762914 15.5715 0.495482 15.8354C0.172172 16.1568 -0.0059867 16.5891 0.000153615 17.0374C0.00629393 17.4857 0.196231 17.9133 0.528229 18.2262L10.5542 27.6787L8.18552 41.0262C8.12997 41.3367 8.1655 41.656 8.28808 41.948C8.41066 42.2399 8.61538 42.4928 8.87903 42.678C9.14268 42.8632 9.45471 42.9732 9.77974 42.9956C10.1048 43.018 10.4298 42.9519 10.7179 42.8048L23.1126 36.5032L35.5072 42.8048C35.8456 42.979 36.2386 43.037 36.6152 42.9737C37.5648 42.8154 38.2034 41.9445 38.0397 41.0262L35.671 27.6787L45.6969 18.2262C45.9698 17.9676 46.1499 17.6299 46.2045 17.2604C46.3519 16.3368 45.686 15.4818 44.7309 15.3446ZM31.4521 26.3487L33.4224 37.4479L23.1126 32.2123L12.8028 37.4532L14.7731 26.354L6.43356 18.4901L17.9604 16.8699L23.1126 6.77348L28.2647 16.8699L39.7916 18.4901L31.4521 26.3487Z" fill="#219A60"/>
</svg>
